<svg xmlns="http://www.w3.org/2000/svg" xmlns:xlink="http://www.w3.org/1999/xlink" viewBox="0 0 362.35 74.7"><defs><style>.cls-1{fill:#161616;}.cls-2{fill:url(#linear-gradient);}</style><linearGradient id="linear-gradient" x1="3.71" y1="64.89" x2="108.32" y2="4.46" gradientUnits="userSpaceOnUse"><stop offset="0" stop-color="#085df4"/><stop offset="1" stop-color="#780fff"/></linearGradient></defs><g id="Layer_2" data-name="Layer 2"><g id="Layer_1-2" data-name="Layer 1"><path class="cls-1" d="M197.54,58.69A14,14,0,0,1,192,54.35a10.94,10.94,0,0,1-2.25-6.06h9.19A5,5,0,0,0,201,51.74a7.12,7.12,0,0,0,4.47,1.37,6.92,6.92,0,0,0,4.08-1A3.17,3.17,0,0,0,211,49.4a2.8,2.8,0,0,0-1.79-2.64,34.07,34.07,0,0,0-5.7-1.93,47,47,0,0,1-6.62-2,11.47,11.47,0,0,1-4.44-3.19,8.59,8.59,0,0,1-1.86-5.81,9.41,9.41,0,0,1,1.73-5.48,11.65,11.65,0,0,1,5-3.91A18.66,18.66,0,0,1,204.84,23q6.47,0,10.31,3.22a12,12,0,0,1,4.24,8.71h-8.74a4.71,4.71,0,0,0-1.8-3.42,6.62,6.62,0,0,0-4.27-1.27,6.7,6.7,0,0,0-3.81.91,2.92,2.92,0,0,0-1.34,2.54,3,3,0,0,0,1.83,2.77,28.72,28.72,0,0,0,5.67,1.93,47.46,47.46,0,0,1,6.46,2,11.36,11.36,0,0,1,4.4,3.23,8.82,8.82,0,0,1,1.92,5.77A9.5,9.5,0,0,1,218,55,11.27,11.27,0,0,1,213,58.88a18.67,18.67,0,0,1-7.53,1.41A19.15,19.15,0,0,1,197.54,58.69Z"/><path class="cls-1" d="M237.84,31.07V48.55a3.43,3.43,0,0,0,.88,2.64,4.36,4.36,0,0,0,3,.82h4.24V59.7h-5.74q-11.55,0-11.54-11.22V31.07h-5.17v-7.5h5.17V14.64h9.19v8.93h8.09v7.5Z"/><path class="cls-1" d="M285.83,44.38H259.42a9,9,0,0,0,2.74,6.13,8.49,8.49,0,0,0,5.94,2.21,7.43,7.43,0,0,0,7.23-4.37h9.85a16.43,16.43,0,0,1-6,8.58,17.5,17.5,0,0,1-10.89,3.36A18.78,18.78,0,0,1,258.93,58a16.27,16.27,0,0,1-6.45-6.55,20.14,20.14,0,0,1-2.32-9.78,20.38,20.38,0,0,1,2.29-9.85,15.87,15.87,0,0,1,6.39-6.52,20.55,20.55,0,0,1,18.68-.07,15.59,15.59,0,0,1,6.32,6.3,19,19,0,0,1,2.25,9.35A21,21,0,0,1,285.83,44.38Zm-9.19-6.13a7.22,7.22,0,0,0-2.54-5.64A9,9,0,0,0,268,30.49a8.26,8.26,0,0,0-5.7,2.05,9,9,0,0,0-2.84,5.71Z"/><path class="cls-1" d="M301.87,11.44V59.7h-9.13V11.44Z"/><path class="cls-1" d="M317.86,11.44V59.7h-9.13V11.44Z"/><path class="cls-1" d="M122.69,31.56a10.08,10.08,0,1,1-10.07,10.08,10.08,10.08,0,0,1,10.07-10.08m0-8.57a18.65,18.65,0,1,0,18.65,18.65A18.65,18.65,0,0,0,122.69,23Z"/><path class="cls-1" d="M182.84,31.76a16.05,16.05,0,0,0-5.94-6.49A15.8,15.8,0,0,0,168.52,23a14.68,14.68,0,0,0-7.07,1.66,13.82,13.82,0,0,0-4.86,4.14V23.57h-9.13V74.7l9.13-2.46V54.55a15.1,15.1,0,0,0,4.92,4.11,14.66,14.66,0,0,0,7,1.63,15.51,15.51,0,0,0,8.38-2.35,16.49,16.49,0,0,0,5.94-6.62A21.34,21.34,0,0,0,185,41.51,20.91,20.91,0,0,0,182.84,31.76Zm-8.48,15.48A9.72,9.72,0,0,1,170.84,51a9.16,9.16,0,0,1-9.39,0,9.33,9.33,0,0,1-3.52-3.68,11.54,11.54,0,0,1-1.34-5.67A11.55,11.55,0,0,1,157.93,36a9.46,9.46,0,0,1,3.52-3.68A9.07,9.07,0,0,1,166.11,31a9.39,9.39,0,0,1,4.73,1.24,9.23,9.23,0,0,1,3.52,3.62,11.31,11.31,0,0,1,1.34,5.64A11.64,11.64,0,0,1,174.36,47.24Z"/><path class="cls-1" d="M353.15,54.42v5.87l9.2-2.48V23.57h-9.2v5.16a14.11,14.11,0,0,0-4.85-4.11A14.69,14.69,0,0,0,341.22,23a15.64,15.64,0,0,0-14.31,8.8,20.87,20.87,0,0,0-2.19,9.72,21.22,21.22,0,0,0,2.19,9.81,16.39,16.39,0,0,0,5.93,6.62,15.4,15.4,0,0,0,8.32,2.35,14.88,14.88,0,0,0,7.14-1.67A13.52,13.52,0,0,0,353.15,54.42ZM338.91,51a9.59,9.59,0,0,1-3.52-3.75,11.6,11.6,0,0,1-1.34-5.7,11.21,11.21,0,0,1,1.34-5.64A9.14,9.14,0,0,1,343.57,31a9.38,9.38,0,0,1,4.76,1.27,9.17,9.17,0,0,1,3.52,3.65,11.72,11.72,0,0,1,1.3,5.71,11.68,11.68,0,0,1-1.3,5.7A9.11,9.11,0,0,1,348.33,51a9.39,9.39,0,0,1-4.76,1.28A8.93,8.93,0,0,1,338.91,51Z"/><path class="cls-2" d="M79.08,29.23A4.66,4.66,0,0,0,77,33.6c1.67,18.76-19.4,31.24-35,20.76a5.32,5.32,0,0,0-5.41-.22c-3.3,1.73-6.31,3.26-9,4.59,26.19,29.42,73.09,2.05,60.37-35.22Q83.36,26.49,79.08,29.23Zm30.28-25c-.56-1-8.52,2.2-20.57,8.13a8.21,8.21,0,0,1-9.07-1.82h0c-25.78-25.64-68.79-.84-59.55,34.3h0a8.59,8.59,0,0,1-2.46,8.46c-42.95,28.78,1,8.14,39.21-13.71C87.1,22.21,110.31,5.9,109.36,4.25ZM52.64,33.7c-7.27,4.19-14,7.81-19.1,10.37C24.21,19.63,55.73,1.41,72.25,21.65,67.41,24.9,60.47,29.18,52.64,33.7Z"/></g></g></svg>
