<svg width="429" height="430" viewBox="0 0 429 430" fill="none" xmlns="http://www.w3.org/2000/svg">
<path d="M214.497 318.487C214.497 330.663 224.441 340.729 236.431 338.609C253.535 335.585 269.911 329.041 284.485 319.303C305.202 305.46 321.349 285.785 330.883 262.766C340.418 239.747 342.913 214.418 338.052 189.981C333.191 165.544 321.193 143.097 303.575 125.479C285.957 107.861 263.511 95.8634 239.074 91.0026C214.637 86.1418 189.307 88.6366 166.288 98.1713C143.269 107.706 123.595 123.853 109.752 144.569C100.014 159.144 93.47 175.519 90.4456 192.624C88.3256 204.613 98.3917 214.558 110.567 214.558C122.743 214.558 132.324 204.514 135.563 192.777C137.877 184.389 141.526 176.378 146.413 169.065C155.41 155.599 168.199 145.104 183.161 138.907C198.124 132.709 214.588 131.087 230.472 134.247C246.356 137.406 260.946 145.205 272.398 156.657C283.85 168.108 291.648 182.699 294.808 198.583C297.967 214.467 296.346 230.931 290.148 245.893C283.951 260.856 273.455 273.644 259.989 282.642C252.676 287.528 244.666 291.177 236.278 293.492C224.541 296.731 214.497 306.312 214.497 318.487Z" fill="url(#paint0_linear_123_10466)"/>
<path d="M214.497 381.39C122.358 381.39 47.6649 306.696 47.6649 214.557C47.6649 122.418 122.358 47.7246 214.497 47.7246C306.637 47.7246 381.33 122.418 381.33 214.557C381.33 306.696 306.637 381.39 214.497 381.39ZM214.497 89.4327C145.393 89.4327 89.373 145.453 89.373 214.557C89.373 283.662 145.393 339.682 214.497 339.682C283.602 339.682 339.622 283.662 339.622 214.557C339.622 145.453 283.602 89.4328 214.497 89.4327Z" fill="url(#paint1_linear_123_10466)"/>
<path d="M211.133 24.7558C210.891 11.1345 199.614 0.142147 186.111 1.94502C152.473 6.43601 120.256 18.8637 92.1855 38.3483C57.3346 62.5393 30.4398 96.5214 14.9021 135.998C-0.635597 175.474 -4.11833 218.671 4.89434 260.126C13.907 301.582 35.0102 339.434 65.5354 368.896C96.0606 398.358 134.637 418.106 176.386 425.644C218.135 433.181 261.181 428.17 300.082 411.243C338.982 394.316 371.99 366.234 394.931 330.547C413.408 301.803 424.686 269.166 427.982 235.391C429.305 221.832 417.92 210.952 404.299 211.193C390.678 211.435 380.021 222.73 378.233 236.235C375.056 260.231 366.628 283.34 353.431 303.87C335.767 331.348 310.351 352.971 280.397 366.005C250.444 379.039 217.298 382.898 185.151 377.094C153.005 371.29 123.301 356.084 99.7966 333.398C76.2922 310.712 60.0427 281.566 53.103 249.646C46.1632 217.725 48.8449 184.463 60.809 154.066C72.773 123.67 93.482 97.5035 120.317 78.8765C140.366 64.9599 163.162 55.7186 187.03 51.6932C200.464 49.4275 211.374 38.3771 211.133 24.7558Z" fill="url(#paint2_linear_123_10466)"/>
<defs>
<linearGradient id="paint0_linear_123_10466" x1="293.593" y1="122.726" x2="120.653" y2="295.666" gradientUnits="userSpaceOnUse">
<stop stop-color="#0260F1"/>
<stop offset="1" stop-color="#00B7F1"/>
</linearGradient>
<linearGradient id="paint1_linear_123_10466" x1="104.567" y1="306.73" x2="322.756" y2="88.5402" gradientUnits="userSpaceOnUse">
<stop stop-color="#79F2EC"/>
<stop offset="0.380932" stop-color="#00B7F1"/>
<stop offset="1" stop-color="#0260F1"/>
</linearGradient>
<linearGradient id="paint2_linear_123_10466" x1="214.497" y1="2.06952" x2="214.497" y2="428.386" gradientUnits="userSpaceOnUse">
<stop stop-color="#19C6FF"/>
<stop offset="1" stop-color="#79F2EC"/>
</linearGradient>
</defs>
</svg>
